# xmcd CD database file
#
# Track frame offsets:
#	150
#	14815
#	28470
#	42512
#	57262
#	70482
#	83067
#	97412
#	111392
#	123055
#	137680
#	149197
#	162235
#	175845
#	189150
#	204150
#	216165
#	228790
#	239662
#	251077
#
# Disc length: 3528 seconds
#
# Revision: 0
# Processed by: cddbd v1.4PL0 Copyright (c) Steve Scherf et al.
# Submitted via: CDex 1.51
#
DISCID=330dc614
DTITLE=Django Reinhardt - Masters of Jazz - Django Reinhardt [CD 2)
DYEAR=1999
DGENRE=Jazz
TTITLE0=Viper's dream
TTITLE1=My serenade
TTITLE2=You, rascal you
TTITLE3=Sweet Georgia Brown
TTITLE4=Honeysuckle Rose
TTITLE5=Souvenirs
TTITLE6=Daphné
TTITLE7=Black and White
TTITLE8=Stompin' at Decca
TTITLE9=Nocturne
TTITLE10=Swing from Paris
TTITLE11=Three little words
TTITLE12=Appel direct
TTITLE13=The flat foot floogie
TTITLE14=Swing 39
TTITLE15=Twelfth year
TTITLE16=Stockholm
TTITLE17=Younger generation
TTITLE18=I'll see you in my dreams
TTITLE19=Nuages
EXTD=YEAR: 1999
EXTT0=
EXTT1=
EXTT2=
EXTT3=
EXTT4=
EXTT5=
EXTT6=
EXTT7=
EXTT8=
EXTT9=
EXTT10=
EXTT11=
EXTT12=
EXTT13=
EXTT14=
EXTT15=
EXTT16=
EXTT17=
EXTT18=
EXTT19=
PLAYORDER=
